HIERARCHY
ROOT Hips
{
	OFFSET 0.00 0.00 0.00
	CHANNELS 6 Xposition Yposition Zposition Xrotation Yrotation Zrotation
	JOINT Spine
	{
		OFFSET 0.00000 4.88528 0.00000
		CHANNELS 3 Xrotation Yrotation Zrotation
		JOINT Head
		{
			OFFSET 0.00000 16.49416 0.00000
			CHANNELS 3 Xrotation Yrotation Zrotation
			End Site
			{
				OFFSET 0.00000 4.52755 0.00000
			}
		}
		JOINT LeftShoulder
		{
			OFFSET 0.00000 10.66345 0.00000
			CHANNELS 3 Xrotation Yrotation Zrotation
			JOINT LeftArm
			{
				OFFSET 7.53191 0.00000 0.00000
				CHANNELS 3 Xrotation Yrotation Zrotation
				JOINT LeftForeArm
				{
					OFFSET 10.22920 0.00000 0.00000
					CHANNELS 3 Yrotation Zrotation Xrotation
					JOINT LeftHand
					{
						OFFSET 8.67349 0.00000 0.00000
						CHANNELS 3 Xrotation Yrotation Zrotation
						JOINT LeftHandThumb1
						{
							OFFSET 0.00000 0.00000 0.00000
							CHANNELS 3 Xrotation Zrotation Yrotation
							End Site
							{
								OFFSET 0.00000 0.00000 3.93700
							}
						}
						End Site
						{
							OFFSET 3.93700 0.00000 0.00000
						}
					}
				}
			}
		}
		JOINT RightShoulder
		{
			OFFSET 0.00000 10.66345 0.00000
			CHANNELS 3 Xrotation Yrotation Zrotation
			JOINT RightArm
			{
				OFFSET -7.53191 0.00000 0.00000
				CHANNELS 3 Xrotation Yrotation Zrotation
				JOINT RightForeArm
				{
					OFFSET -10.22920 0.00000 0.00000
					CHANNELS 3 Yrotation Zrotation Xrotation
					JOINT RightHand
					{
						OFFSET -8.67349 0.00000 0.00000
						CHANNELS 3 Xrotation Yrotation Zrotation
						JOINT RightHandThumb1
						{
							OFFSET 0.00000 0.00000 0.00000
							CHANNELS 3 Xrotation Zrotation Yrotation
							End Site
							{
								OFFSET 0.00000 0.00000 3.93700
							}
						}
						End Site
						{
							OFFSET -3.93700 0.00000 0.00000
						}
					}
				}
			}
		}
	}
	JOINT LeftUpLeg
	{
		OFFSET 2.67219 0.00000 0.00000
		CHANNELS 3 Xrotation Yrotation Zrotation
		JOINT LeftLeg
		{
			OFFSET 0.00000 -16.26339 0.00000
			CHANNELS 3 Xrotation Yrotation Zrotation
			JOINT LeftFoot
			{
				OFFSET 0.00000 -14.32816 0.00000
				CHANNELS 3 Xrotation Yrotation Zrotation
				JOINT LeftToeBase
				{
					OFFSET 0.00000 -1.30219 4.85985
					CHANNELS 3 Xrotation Yrotation Zrotation
					End Site
					{
						OFFSET 0.00000 0.00000 2.95275
					}
				}
			}
		}
	}
	JOINT RightUpLeg
	{
		OFFSET -2.67219 0.00000 0.00000
		CHANNELS 3 Xrotation Yrotation Zrotation
		JOINT RightLeg
		{
			OFFSET 0.00000 -16.26339 0.00000
			CHANNELS 3 Xrotation Yrotation Zrotation
			JOINT RightFoot
			{
				OFFSET 0.00000 -14.32816 0.00000
				CHANNELS 3 Xrotation Yrotation Zrotation
				JOINT RightToeBase
				{
					OFFSET 0.00000 -1.30219 4.85985
					CHANNELS 3 Xrotation Yrotation Zrotation
					End Site
					{
						OFFSET 0.00000 0.00000 2.95275
					}
				}
			}
		}
	}
}
MOTION
Frames: 17
Frame Time: 0.008333
 0.6903 33.1590 -8.6920 14.7714 1.1002 -0.4247 -15.6502 -2.5591 -1.3727 8.5803 -3.0301 0.6327 44.7609 23.0647 4.5336 -49.3313 -9.2035 -91.9861 -16.0306 -0.0000 -8.1818 -0.4928 -4.6156 -6.1012 33.1476 -0.0000 26.2537 8.1327 -7.4941 -14.8816 -12.1619 12.3960 90.2266 13.3728 0.0000 -4.6284 -0.6775 4.1736 9.2290 32.8623 0.0000 -24.3270 -9.5071 -7.0801 0.7254 -0.7615 0.0000 -0.0000 1.4283 13.1529 -11.8680 -13.3390 0.0000 0.0000 -8.4481 -2.8444 1.1100 -3.0573 -0.0000 0.0000 -1.9821 -6.9009 3.5100 -1.6026 0.0000 -0.0000
 0.6880 33.1656 -8.6943 14.7605 1.1510 -0.4561 -15.5672 -2.5725 -1.3837 8.3643 -3.0118 0.6118 44.7759 22.9317 4.5250 -49.3358 -10.4774 -92.6095 -16.1722 -0.0000 -8.4378 -0.5137 -4.6518 -6.3086 33.1476 -0.0000 26.2537 8.3742 -7.5132 -14.7151 -12.3357 12.8904 90.8674 13.7189 0.0000 -4.6649 -0.6897 4.2329 9.2625 32.8623 0.0000 -24.3270 -9.4805 -7.1537 0.7986 -0.8041 -0.0000 -0.0000 1.5113 13.0090 -12.0611 -13.2951 -0.0000 0.0000 -8.4450 -2.6974 1.1283 -3.0334 -0.0000 0.0000 -1.9878 -7.0698 3.4242 -1.5086 -0.0000 -0.0000
 0.6902 33.1682 -8.7057 14.7816 1.1932 -0.4504 -15.5061 -2.5765 -1.4170 8.1432 -2.9735 0.5640 44.7699 22.7632 4.5414 -49.3655 -11.8141 -93.1960 -16.3304 -0.0000 -8.6504 -0.5147 -4.6726 -6.2930 33.1476 -0.0000 26.2537 8.5584 -7.4937 -14.5821 -12.5126 13.4149 91.4915 13.9611 0.0000 -4.7518 -0.6859 4.2434 9.1904 32.8623 0.0000 -24.3270 -9.5298 -7.1745 0.8228 -0.7922 0.0000 0.0000 1.5487 12.8521 -12.2847 -13.3649 0.0000 -0.0000 -8.5149 -2.6425 1.0900 -2.9596 -0.0000 0.0000 -2.0522 -7.0934 3.4963 -1.3833 -0.0000 -0.0000
 0.6896 33.1655 -8.7177 14.8035 1.2380 -0.4683 -15.4474 -2.6043 -1.4344 7.9278 -2.9171 0.5331 44.7182 22.5857 4.6004 -49.3624 -13.1975 -93.7442 -16.5352 -0.0000 -8.8425 -0.5527 -4.8235 -6.5443 33.1476 -0.0000 26.2537 8.7445 -7.4702 -14.4482 -12.7378 14.1188 92.1044 14.1555 0.0000 -5.1393 -0.7052 4.2995 9.3239 32.8623 0.0000 -24.3270 -9.5766 -7.1897 0.8739 -0.7568 -0.0000 -0.0000 1.4595 12.6783 -12.5030 -13.2215 0.0000 -0.0000 -8.5917 -2.7375 1.0797 -2.8599 0.0000 -0.0000 -2.1682 -6.9660 3.5641 -1.3407 -0.0000 0.0000
 0.6900 33.1574 -8.7331 14.8114 1.2785 -0.4909 -15.3646 -2.6338 -1.4398 7.6993 -2.8755 0.4993 44.6333 22.3796 4.6948 -49.3602 -14.6423 -94.2575 -16.7927 -0.0000 -8.9892 -0.5796 -4.8380 -6.8400 33.1476 -0.0000 26.2537 8.8763 -7.4060 -14.3513 -12.9824 14.6440 92.7036 14.2050 0.0000 -5.2208 -0.7378 4.4572 9.4089 32.8623 0.0000 -24.3270 -9.6114 -7.2040 0.9256 -0.7093 0.0000 0.0000 1.2769 12.5369 -12.6978 -13.1045 -0.0000 -0.0000 -8.6627 -2.7415 1.0791 -2.7501 -0.0000 0.0000 -2.3478 -6.9423 3.5239 -1.2299 -0.0000 -0.0000
 0.6904 33.1433 -8.7477 14.7939 1.3286 -0.5182 -15.2659 -2.6742 -1.4294 7.4945 -2.8218 0.4372 44.5802 22.1591 4.7892 -49.4624 -16.1858 -94.7485 -16.9875 -0.0000 -9.1822 -0.6295 -4.9800 -7.2140 33.1476 -0.0000 26.2537 9.0021 -7.3246 -14.2720 -13.2539 15.2907 93.2726 14.2517 0.0000 -5.5058 -0.7326 4.2878 9.7045 32.8623 0.0000 -24.3270 -9.6272 -7.2025 0.9711 -0.6348 0.0000 -0.0000 1.0007 12.4280 -12.9064 -12.8136 -0.0000 -0.0000 -8.7024 -2.6427 1.0852 -2.6435 -0.0000 0.0000 -2.5917 -7.0678 3.5220 -1.0657 0.0000 -0.0000
 0.6865 33.1229 -8.7656 14.7783 1.3566 -0.5984 -15.1584 -2.7090 -1.3558 7.2865 -2.7629 0.3628 44.5686 21.9184 4.8751 -49.6250 -17.7563 -95.1949 -17.2618 -0.0000 -9.1854 -0.6504 -4.9246 -7.5332 33.1476 -0.0000 26.2537 9.0503 -7.2175 -14.2305 -13.4998 16.0345 93.8202 14.2618 0.0000 -5.7000 -0.7472 4.3039 9.8586 32.8623 0.0000 -24.3270 -9.6537 -7.1514 1.0655 -0.5377 0.0000 0.0000 0.6189 12.3661 -13.1304 -12.3787 0.0000 0.0000 -8.7466 -2.8602 1.1637 -2.5479 0.0000 -0.0000 -2.8266 -6.8625 3.5245 -0.9939 0.0000 -0.0000
 0.6911 33.0966 -8.7832 14.7467 1.3862 -0.6282 -15.0406 -2.7607 -1.3097 7.0792 -2.6795 0.2512 44.5178 21.6915 4.9722 -49.8002 -19.4252 -95.6251 -17.5654 -0.0000 -9.1809 -0.6752 -4.8803 -7.8869 33.1476 -0.0000 26.2537 9.0596 -7.0661 -14.2210 -13.7582 16.8582 94.3272 14.2357 0.0000 -6.0843 -0.7872 4.4164 10.1176 32.8623 0.0000 -24.3270 -9.7204 -6.8715 1.0877 -0.3532 0.0000 0.0000 0.1872 12.0777 -13.3275 -12.1565 0.0000 -0.0000 -8.7603 -2.7735 1.1727 -2.4854 0.0000 0.0000 -3.1365 -6.9484 3.5058 -0.7442 0.0000 -0.0000
 0.6907 33.0630 -8.8015 14.6992 1.4334 -0.7080 -14.9004 -2.8509 -1.2220 6.8525 -2.5861 0.1472 44.4216 21.5031 5.0878 -50.0211 -21.2674 -96.0464 -17.8756 -0.0000 -9.1176 -0.7217 -4.8591 -8.4588 33.1476 -0.0000 26.2537 9.0463 -6.9051 -14.2302 -14.0528 17.8057 94.8106 14.2066 0.0000 -6.3009 -0.7832 4.1380 10.7274 32.8623 0.0000 -24.3270 -9.7308 -6.8032 1.1452 -0.2387 0.0000 0.0000 -0.2857 12.0438 -13.3279 -11.8589 -0.0000 0.0000 -8.7382 -2.6249 1.2475 -2.4634 0.0000 0.0000 -3.4524 -7.1352 3.3532 -0.5680 -0.0000 0.0000
 0.6899 33.0251 -8.8199 14.6343 1.4754 -0.7935 -14.7424 -2.9423 -1.1301 6.6238 -2.4714 0.0606 44.4367 21.3392 5.1626 -50.4002 -23.2681 -96.4609 -18.2467 -0.0000 -8.6329 -0.7956 -4.7451 -9.5295 33.1476 -0.0000 26.2537 9.0411 -6.7250 -14.2301 -14.3852 18.8591 95.2511 14.1928 0.0000 -6.4249 -0.7776 3.9108 11.2553 32.8623 0.0000 -24.3270 -9.8136 -6.4777 1.1951 0.0302 0.0000 -0.0000 -0.8483 11.7573 -13.2227 -11.7038 0.0000 0.0000 -8.6614 -2.4408 1.3379 -2.5170 -0.0000 0.0000 -3.7748 -7.3767 3.1361 -0.3797 -0.0000 -0.0000
 0.6890 32.9849 -8.8391 14.5706 1.5349 -0.8836 -14.5745 -3.0314 -1.0352 6.3567 -2.3875 -0.0146 44.3730 21.1668 5.2602 -50.7706 -25.4838 -96.8837 -18.7227 -0.0000 -8.5945 -0.8263 -4.6746 -10.0357 33.1476 -0.0000 26.2537 8.9648 -6.5726 -14.2227 -14.7116 20.0603 95.6499 14.1752 0.0000 -6.4477 -0.7897 3.5658 12.4964 32.8623 0.0000 -24.3270 -9.7919 -6.4918 1.2466 0.0742 -0.0000 0.0000 -1.3044 11.8434 -13.0670 -11.6699 -0.0000 0.0000 -8.5429 -2.3005 1.4380 -2.6528 0.0000 -0.0000 -4.0904 -7.5948 2.9071 -0.1056 0.0000 -0.0000
 0.6913 32.9449 -8.8628 14.5450 1.6099 -0.9173 -14.4464 -3.1477 -1.0097 6.0756 -2.2892 -0.0661 44.2001 21.0400 5.3656 -51.1154 -27.1886 -97.2783 -19.0433 -0.0000 -8.3386 -0.9070 -4.6788 -10.9842 33.1476 -0.0000 26.2537 8.9351 -6.4092 -14.1785 -15.1183 21.3683 95.9862 14.1961 0.0000 -6.5218 -0.8007 3.4211 13.1806 32.8623 0.0000 -24.3270 -9.8268 -6.4890 1.2227 0.1082 -0.0000 -0.0000 -1.7246 11.9284 -12.8415 -11.4085 -0.0000 0.0000 -8.4353 -2.1722 1.4728 -2.8559 -0.0000 0.0000 -4.3803 -7.8014 2.6623 -0.0012 0.0000 -0.0000
 0.6902 32.9059 -8.8822 14.4802 1.7075 -0.9530 -14.2789 -3.2486 -0.9994 5.7846 -2.2294 -0.0894 44.2018 20.9306 5.3764 -51.7239 -29.4662 -97.6512 -19.4786 -0.0000 -7.6439 -0.8825 -4.6600 -10.7364 33.1476 -0.0000 26.2537 8.9106 -6.3035 -14.0673 -15.5546 22.7425 96.2574 14.2206 0.0000 -6.6714 -0.7801 3.3272 13.2033 32.8623 0.0000 -24.3270 -9.7095 -6.7447 1.1936 -0.0597 0.0000 0.0000 -2.0361 12.2634 -12.3629 -11.2391 0.0000 0.0000 -8.2803 -2.1883 1.5171 -3.0486 0.0000 -0.0000 -4.6725 -7.8728 2.3335 0.1694 0.0000 -0.0000
 0.6927 32.8696 -8.9051 14.4326 1.8201 -0.9287 -14.1280 -3.4010 -1.0621 5.4761 -2.1164 -0.0726 44.0026 20.8134 5.4068 -52.1198 -31.6175 -97.9622 -19.9128 -0.0000 -7.2912 -0.9366 -4.5939 -11.5365 33.1476 -0.0000 26.2537 8.8147 -6.1333 -13.9331 -15.9326 24.2102 96.4744 14.3242 0.0000 -6.6020 -0.7659 3.0814 13.9662 32.8623 0.0000 -24.3270 -9.6534 -6.8164 1.0945 -0.1744 -0.0000 0.0000 -2.3057 12.4291 -11.9513 -11.2465 -0.0000 0.0000 -8.1226 -2.1343 1.4941 -3.3038 0.0000 -0.0000 -4.9489 -8.0888 2.1931 0.4641 0.0000 -0.0000
 0.6982 32.8388 -8.9300 14.4012 1.9139 -0.8477 -13.9864 -3.4732 -1.1888 5.1403 -2.0392 -0.0202 44.0098 20.7165 5.3392 -52.7606 -33.7067 -98.2262 -20.3868 -0.0000 -6.6836 -0.9770 -4.5633 -12.0981 33.1476 -0.0000 26.2537 8.8278 -6.0496 -13.7154 -16.4099 25.6654 96.6233 14.4975 0.0000 -6.2152 -0.8102 3.0934 14.6851 32.8623 0.0000 -24.3270 -9.5729 -6.8859 0.9497 -0.3858 -0.0000 0.0000 -2.4671 12.5898 -11.5979 -11.1910 0.0000 -0.0000 -7.9914 -2.0857 1.4118 -3.5512 0.0000 -0.0000 -5.2025 -8.2617 1.9956 0.7370 0.0000 0.0000
 0.6999 32.8120 -8.9563 14.3818 2.0275 -0.7589 -13.8617 -3.5631 -1.3497 4.8045 -1.9767 0.0733 43.8546 20.5963 5.3273 -53.1929 -35.6774 -98.4398 -20.9197 -0.0000 -6.0168 -1.0225 -4.5808 -12.5979 33.1476 -0.0000 26.2537 8.7729 -5.9624 -13.4620 -16.7757 27.3393 96.6973 14.8327 0.0000 -6.0186 -0.8068 2.8627 15.7463 32.8623 0.0000 -24.3270 -9.4727 -6.9847 0.8141 -0.6702 0.0000 0.0000 -2.5667 12.7640 -11.3548 -10.9437 0.0000 -0.0000 -7.8840 -2.0851 1.3265 -3.7775 0.0000 -0.0000 -5.4389 -8.4165 1.7962 0.9451 0.0000 -0.0000
 0.6992 32.7903 -8.9823 14.3782 2.1092 -0.6728 -13.7647 -3.6283 -1.5108 4.4822 -1.9296 0.1877 43.8885 20.5161 5.2339 -53.8253 -37.4335 -98.6619 -21.3497 -0.0000 -5.2595 -1.1022 -4.7095 -13.1878 33.1476 -0.0000 26.2537 8.7746 -5.8686 -13.1977 -17.1651 28.8576 96.7438 15.2146 0.0000 -5.6253 -0.7955 2.7560 16.1072 32.8623 0.0000 -24.3270 -9.3894 -6.9636 0.7037 -0.9498 0.0000 0.0000 -2.6180 12.8116 -11.1960 -10.8856 -0.0000 0.0000 -7.8094 -2.0596 1.2507 -3.9714 0.0000 0.0000 -5.6522 -8.5800 1.6327 1.1790 -0.0000 -0.0000
